<?xml version="1.0" encoding="UTF-8"?>
<svg width="100pt" height="100pt" version="1.1" viewBox="0 0 100 100" xmlns="http://www.w3.org/2000/svg">
 <path d="m63.652 16.461 3.0625-3.9805 13.254 0.94922 1.9102 2.7695-8.207 3.832zm9.3281 5.2422-9.9102-3.5312 0.83594 30.445 18.035 3.8906zm-9.0234 28.777 0.62109 22.668 10.934 0.32031 6.5312-19.086zm1.3047-44.488-2.4102 4.2578 0.11328 4.1406 2.418-3.1445zm-35.461 47.594-4.3203 10.246 14.309 8.1406 5.0664-19.941zm-4.5586 27.562h5.7773l7.8594-7.6172-13.637-7.7578zm-4.4102-21.117 4.0273 0.60938 2.5039-5.9414zm4.8086 22.926 4.1562 11.051h3.8633l-2.9688-11.051zm21.129-31.129-5.2422 20.645 21.238 0.62109-0.62891-22.855zm18.379 42.18h3.332l6.418-18.746-10.273-0.30078z" fill="#e8001a"/>
</svg>
